<svg width="232" height="71" viewBox="0 0 232 71" fill="none" xmlns="http://www.w3.org/2000/svg">
<g filter="url(#filter0_d_2043_167)">
<path d="M4 56L7.83496 31.6953H14.376L12.8652 41.0752H21.3652L22.8428 31.6953H29.4004L25.5488 56H18.9912L20.5518 46.0723H12.085L10.5244 56H4ZM43.3457 45.624C43.2904 44.7165 42.986 43.9971 42.4326 43.4658C41.8792 42.9346 41.1488 42.6689 40.2412 42.6689C39.4222 42.6689 38.6862 42.929 38.0332 43.4492C37.3913 43.9694 36.9043 44.6943 36.5723 45.624H43.3457ZM36.1738 49.0273V49.4092C36.1738 50.4717 36.445 51.2796 36.9873 51.833C37.5296 52.3864 38.321 52.6631 39.3613 52.6631C40.0918 52.6631 40.778 52.5137 41.4199 52.2148C42.0729 51.9049 42.7702 51.4124 43.5117 50.7373L46.6992 53.958C45.7474 54.8656 44.6462 55.5462 43.3955 56C42.1559 56.4538 40.7669 56.6807 39.2285 56.6807C36.4948 56.6807 34.3698 55.9557 32.8535 54.5059C31.3483 53.0449 30.5957 51.0029 30.5957 48.3799C30.5957 45.5133 31.4922 43.1836 33.2852 41.3906C35.0892 39.5977 37.4189 38.7012 40.2744 38.7012C42.8643 38.7012 44.945 39.4925 46.5166 41.0752C48.0993 42.6579 48.8906 44.7552 48.8906 47.3672C48.8906 47.5996 48.8574 48.0202 48.791 48.6289C48.7689 48.8171 48.7523 48.9499 48.7412 49.0273H36.1738ZM54.751 55.1533L49.9863 39.2324H56.1123L57.5732 46.4707C57.5954 46.5703 57.6286 46.7142 57.6729 46.9023C57.8831 47.8763 57.9993 48.7064 58.0215 49.3926C58.1432 48.9609 58.2982 48.5016 58.4863 48.0146C58.6855 47.5166 58.9235 46.9798 59.2002 46.4043L62.6699 39.2324H69.0283L56.0127 63.4043H49.8203L54.751 55.1533ZM72.6143 55.1533L67.8496 39.2324H73.9756L75.4365 46.4707C75.4587 46.5703 75.4919 46.7142 75.5361 46.9023C75.7464 47.8763 75.8626 48.7064 75.8848 49.3926C76.0065 48.9609 76.1615 48.5016 76.3496 48.0146C76.5488 47.5166 76.7868 46.9798 77.0635 46.4043L80.5332 39.2324H86.8916L73.876 63.4043H67.6836L72.6143 55.1533ZM90.4775 55.1533L85.7129 39.2324H91.8389L93.2998 46.4707C93.3219 46.5703 93.3551 46.7142 93.3994 46.9023C93.6097 47.8763 93.7259 48.7064 93.748 49.3926C93.8698 48.9609 94.0247 48.5016 94.2129 48.0146C94.4121 47.5166 94.6501 46.9798 94.9268 46.4043L98.3965 39.2324H104.755L91.7393 63.4043H85.5469L90.4775 55.1533Z" fill="black"/>
</g>
<g filter="url(#filter1_d_2043_167)">
<path d="M124.66 37.3296V41.4058H131.615V46.7759H124.66V56.3516H118.319V31.9595H132.327V37.3296H124.66Z" fill="black"/>
<path d="M140.287 52.1137L138.605 56.3516H131.876L141.258 31.9595H148.181L157.368 56.3516H150.607L149.022 52.1137H140.287ZM144.719 39.4971H144.654L142.034 47.2612H147.307L144.719 39.4971Z" fill="black"/>
<path d="M159.341 31.9595H165.681L177.295 46.873H177.36V31.9595H183.701V56.3516H177.36L165.746 41.4058H165.681V56.3516H159.341V31.9595Z" fill="black"/>
</g>
<path d="M174.83 66L175.516 20.9926L161.047 31.3589L156.319 22.2437L187.365 0L186.673 43.961L203.301 32.0479L208.319 42.0047L174.83 65.9967V66Z" fill="#E7E12D"/>
<defs>
<filter id="filter0_d_2043_167" x="0" y="30.6953" width="108.755" height="39.709" filterUnits="userSpaceOnUse" color-interpolation-filters="sRGB">
<feFlood flood-opacity="0" result="BackgroundImageFix"/>
<feColorMatrix in="SourceAlpha" type="matrix" values="0 0 0 0 0 0 0 0 0 0 0 0 0 0 0 0 0 0 127 0" result="hardAlpha"/>
<feOffset dy="3"/>
<feGaussianBlur stdDeviation="2"/>
<feComposite in2="hardAlpha" operator="out"/>
<feColorMatrix type="matrix" values="0 0 0 0 1 0 0 0 0 1 0 0 0 0 1 0 0 0 0.4 0"/>
<feBlend mode="normal" in2="BackgroundImageFix" result="effect1_dropShadow_2043_167"/>
<feBlend mode="normal" in="SourceGraphic" in2="effect1_dropShadow_2043_167" result="shape"/>
</filter>
<filter id="filter1_d_2043_167" x="114.319" y="31.9595" width="73.3813" height="32.3921" filterUnits="userSpaceOnUse" color-interpolation-filters="sRGB">
<feFlood flood-opacity="0" result="BackgroundImageFix"/>
<feColorMatrix in="SourceAlpha" type="matrix" values="0 0 0 0 0 0 0 0 0 0 0 0 0 0 0 0 0 0 127 0" result="hardAlpha"/>
<feOffset dy="4"/>
<feGaussianBlur stdDeviation="2"/>
<feComposite in2="hardAlpha" operator="out"/>
<feColorMatrix type="matrix" values="0 0 0 0 1 0 0 0 0 1 0 0 0 0 1 0 0 0 0.4 0"/>
<feBlend mode="normal" in2="BackgroundImageFix" result="effect1_dropShadow_2043_167"/>
<feBlend mode="normal" in="SourceGraphic" in2="effect1_dropShadow_2043_167" result="shape"/>
</filter>
</defs>
</svg>
